<svg width="2100" height="2100" viewBox="0 0 2100 2100" fill="none" xmlns="http://www.w3.org/2000/svg">
<g clip-path="url(#clip0_3316_18)">

<path fill-rule="evenodd" clip-rule="evenodd" d="M819 531.547C823.951 535.277 843.952 549.85 867 566.518C877.319 573.981 909.802 597.242 921.435 605.5C941.648 619.847 954.193 628.837 964 636.004C969.775 640.224 985.975 651.921 1000 661.997C1041.14 691.553 1056.25 702.479 1068.5 711.523C1072.9 714.772 1080.78 720.408 1086 724.05C1094.07 729.673 1106.56 738.662 1127.97 754.247C1153.77 773.034 1164.28 780.556 1189 797.952C1198.63 804.73 1200.37 806.286 1211.5 818.101C1242.22 850.707 1259.33 870.069 1258.33 871.074C1257.35 872.046 1242.4 869.75 1214.5 864.347C1205.44 862.592 1196.39 859.627 1190.5 856.485C1183.08 852.523 1167.51 843.777 1166.5 843.002C1165.95 842.58 1157.4 837.746 1147.5 832.26C1137.6 826.774 1127.9 821.377 1125.94 820.265C1116.07 814.669 1095.38 802.659 1094.5 802.019C1093.95 801.618 1090.58 799.705 1087 797.767C1076.34 791.988 1070.14 788.607 1057.45 781.643C1044.75 774.679 1044.95 774.853 1022.51 751C1017.6 745.775 1004.78 732.317 994.037 721.094C983.292 709.871 974.05 700.17 973.5 699.537C972.95 698.903 967.994 693.686 962.487 687.942C956.98 682.199 942.355 666.936 929.987 654.024C917.619 641.113 901.626 624.463 894.446 617.024C887.266 609.586 876.468 598.325 870.449 592C851.904 572.509 834.196 554.203 817.802 537.573C809.166 528.814 802.337 521.263 802.627 520.795C803.132 519.977 807.128 522.6 819 531.547ZM574.352 534.898C576.669 536.492 580.688 538.967 583.282 540.398C592.703 545.594 596.663 547.836 605.5 552.98C610.45 555.862 617.425 559.81 621 561.754C624.575 563.699 632.225 567.992 638 571.296C643.775 574.6 650.075 578.19 652 579.274C653.925 580.358 658.994 583.228 663.264 585.65C667.534 588.073 673.159 591.231 675.764 592.667C678.369 594.104 682.525 596.41 685 597.792C687.475 599.175 691.75 601.521 694.5 603.006C697.25 604.492 706.025 609.413 714 613.943C721.975 618.473 733 624.688 738.5 627.755C744 630.822 750.975 634.765 754 636.518C757.025 638.271 767.825 644.34 778 650.004C788.175 655.668 803.025 663.988 811 668.493C818.975 672.998 830 679.086 835.5 682.022C841 684.959 847.657 688.63 850.294 690.18C852.931 691.731 855.262 693 855.475 693C855.689 693 861.564 696.375 868.533 700.5C875.501 704.625 881.348 708 881.526 708C881.704 708 886.721 710.768 892.675 714.151C898.629 717.534 906.688 722.013 910.585 724.104C914.481 726.196 922.131 730.452 927.585 733.563C933.038 736.673 940.425 740.805 944 742.743C947.575 744.682 954.226 748.458 958.781 751.134C963.335 753.81 967.281 756 967.551 756C967.82 756 969.718 757.057 971.77 758.348C973.821 759.64 979.55 762.84 984.5 765.458C989.45 768.077 993.95 770.555 994.5 770.965C995.05 771.374 998.65 773.416 1002.5 775.502C1012.77 781.065 1023.75 787.192 1049.5 801.722C1062.15 808.859 1081.05 819.343 1091.5 825.02C1101.95 830.696 1116.8 839.002 1124.5 843.477C1132.2 847.953 1145.25 855.371 1153.5 859.961C1161.75 864.552 1174.57 871.727 1181.98 875.904C1189.39 880.082 1196.82 883.802 1198.48 884.171C1209.73 886.67 1229.92 890.568 1239 891.995C1242.58 892.557 1246.62 893.435 1248 893.947C1250.21 894.768 1258.54 896.31 1281 900.053C1284.58 900.649 1288.4 901.537 1289.5 902.027C1290.6 902.516 1292.5 903.048 1293.72 903.208C1295 903.376 1302.03 909.481 1310.22 917.542C1318.08 925.265 1345.42 952.02 1371 976.997C1416.73 1021.66 1446.72 1051.09 1490.75 1094.52C1502.99 1106.59 1513 1116.92 1513 1117.48C1513 1118.85 1433.79 1198 1432.42 1198C1431.43 1198 1426.44 1189.93 1406.16 1155.5C1402.59 1149.45 1398.69 1142.92 1397.48 1141C1395.08 1137.17 1381.19 1113.71 1379.42 1110.5C1376.33 1104.91 1373.59 1100.25 1372.08 1098C1370.2 1095.22 1367.68 1089.33 1366.08 1084C1364.91 1080.11 1364.61 1065.48 1365.46 1054C1366.58 1038.85 1366.77 1014.33 1365.81 1008.13C1364.15 997.411 1360.39 990.76 1354.22 987.649C1352.72 986.895 1347.68 985.998 1343 985.657C1324.58 984.313 1279.42 980.76 1278 980.544C1276.38 980.297 1269.05 979.705 1239.5 977.44C1229.05 976.639 1218.25 975.764 1215.5 975.497C1212.75 975.229 1204.65 974.579 1197.5 974.051C1190.35 973.523 1178.2 972.62 1170.5 972.044C1162.8 971.469 1154.2 970.853 1151.38 970.677C1148.27 970.483 1145.27 969.598 1143.74 968.429C1142.36 967.368 1135.47 962 1128.44 956.5C1121.4 951 1112.88 944.475 1109.49 942C1106.11 939.525 1095.93 931.875 1086.87 925C1070.48 912.562 1022.38 876.216 999.5 858.976C992.9 854.003 979.85 844.111 970.5 836.992C961.15 829.874 936.556 811.326 915.846 795.775C895.136 780.224 869.337 760.75 858.516 752.5C847.694 744.25 833.304 733.45 826.538 728.5C813.323 718.832 759.442 678.315 728.616 654.865C704.637 636.624 710.447 640.982 667 608.637C646.375 593.282 624.775 577.128 619 572.74C613.225 568.352 599.389 557.953 588.253 549.631C570.117 536.077 565.681 532 569.07 532C569.658 532 572.035 533.304 574.352 534.898ZM765.5 751.922C778.123 754.468 796.371 760.37 810.5 766.475C812.15 767.188 818.675 769.865 825 772.423C838.439 777.858 862.313 789.468 872.929 795.731C882.346 801.287 903.472 811.279 912.25 814.329C914.982 815.279 914.413 816.374 908.301 821.92C886.845 841.395 870.546 848.668 834 855.077C812.685 858.815 758 858.338 758 854.415C758 853.658 759.237 852.768 760.75 852.438C764.062 851.715 789.272 845.249 793.5 844.038C795.15 843.566 800.1 842.224 804.5 841.057C808.9 839.889 813.625 838.545 815 838.07C816.375 837.595 824.362 835.044 832.75 832.4C841.138 829.757 847.999 827.348 847.999 827.047C847.998 826.746 843.706 825.033 838.461 823.241C829.739 820.26 819.093 816.085 788.5 803.647C767.736 795.205 752.302 792.066 733.5 792.46C713.72 792.875 700.039 797.374 684.213 808.667C676.658 814.058 661.952 828.473 659.725 832.67C654.457 842.595 649.941 852.315 648.187 857.5C643.15 872.387 640.478 890.2 641.474 902.252C642.271 911.895 645.555 933.737 647.074 939.5C647.654 941.7 648.516 945.3 648.99 947.5C649.756 951.057 651.413 957.252 655.544 972C657.094 977.532 659.808 985.813 660.953 988.5C661.421 989.6 662.793 993.425 664 997C666.493 1004.38 666.875 1005.4 670 1013C673.436 1021.36 673.646 1021.87 677.402 1031.15C681.165 1040.44 688.879 1063.02 691.353 1072C693.958 1081.45 697.846 1103.04 698.914 1114C699.478 1119.78 700.202 1134.4 700.523 1146.5C701.101 1168.23 703.055 1194.89 705.068 1208.5C709.715 1239.92 714.369 1262.57 720.685 1284.5C727.899 1309.54 737.058 1335.1 743.472 1348.08C747.097 1355.42 754.394 1366.02 755.782 1365.97C756.177 1365.96 758.185 1360.67 760.244 1354.22C763.841 1342.96 765.063 1338.49 767.075 1329.25C768.636 1322.08 769.843 1316.7 770.948 1312C771.529 1309.53 772.496 1305.03 773.095 1302C774.722 1293.79 776.369 1286.15 779.35 1273C782.115 1260.8 785.003 1247.51 787.067 1237.5C792.834 1209.53 803.714 1168.19 807.861 1158.5C813.765 1144.7 822.679 1129.28 829.072 1121.8C833.367 1116.78 843.02 1109 844.957 1109C845.531 1109 846 1108.61 846 1108.14C846 1107.66 849.037 1106.28 852.75 1105.07C856.463 1103.86 860.175 1102.6 861 1102.27C863.3 1101.35 869.321 1101.27 871 1102.13C871.825 1102.55 874.627 1103.17 877.227 1103.51C879.826 1103.84 882.215 1104.54 882.536 1105.06C882.856 1105.58 883.896 1106 884.848 1106C888.924 1106 900.677 1113.87 908.876 1122.1C917.397 1130.65 928.903 1150.8 933.94 1166C935.125 1169.58 936.492 1173.23 936.979 1174.13C937.465 1175.02 938.178 1177.5 938.562 1179.63C938.946 1181.76 939.589 1183.95 939.99 1184.5C940.39 1185.05 941.467 1188.88 942.381 1193C943.295 1197.12 944.742 1203.42 945.596 1207C947.484 1214.91 948.884 1221.49 949.53 1225.5C949.796 1227.15 950.653 1231.42 951.435 1235C952.217 1238.58 953.597 1245.78 954.501 1251C955.405 1256.22 956.541 1262.75 957.026 1265.5C957.511 1268.25 958.362 1273.2 958.917 1276.5C959.472 1279.8 960.588 1286.32 961.397 1291C962.207 1295.68 963.619 1304.9 964.534 1311.5C965.45 1318.1 966.781 1325.53 967.492 1328C968.202 1330.47 969.072 1334.75 969.425 1337.5C970.078 1342.59 973.736 1359.28 974.796 1362C975.178 1362.98 975.512 1362.54 975.758 1360.73C975.966 1359.21 976.505 1358.19 976.955 1358.47C978.178 1359.23 979.253 1357.58 985.746 1345C990.822 1335.16 996.171 1322.63 1005.16 1299.5C1006.23 1296.75 1007.51 1293.6 1008.01 1292.5C1013.23 1280.91 1020.62 1259.16 1023.82 1245.94C1029.11 1224.06 1032.37 1199.63 1035.02 1162C1036.38 1142.72 1038.77 1121.62 1040.12 1117C1043.03 1107.1 1048.72 1098.92 1065.55 1080.5C1096.25 1046.9 1115.83 1025.26 1121.58 1018.57C1128.53 1010.48 1130.62 1008.57 1131.3 1009.7C1132.13 1011.08 1133.08 1250.33 1132.27 1253.75C1131.44 1257.24 1124.62 1264.29 1029.08 1360.35C1001.81 1387.76 978.285 1410.83 976.8 1411.6C972.993 1413.58 965.587 1413.34 961.203 1411.1C948.531 1404.64 937.531 1382.79 930.939 1351C930.312 1347.97 928.941 1341.45 927.893 1336.5C925.862 1326.91 924.253 1318.84 921.011 1302C917.17 1282.05 915.899 1275.48 914.913 1270.5C911.99 1255.73 910.997 1250.78 909.494 1243.5C908.586 1239.1 907.493 1233.7 907.065 1231.5C904.182 1216.68 898.863 1195.77 894.345 1181.5C888.099 1161.77 877.408 1147 869.377 1147C864.692 1147 857.573 1153.7 853.275 1162.16C846.397 1175.69 837.779 1205.52 830.936 1239.5C829.835 1244.97 826.568 1259.91 824.488 1269C823.544 1273.12 822.375 1278.53 821.891 1281C821.408 1283.47 820.584 1287.3 820.062 1289.5C819.539 1291.7 818.372 1296.88 817.467 1301C816.562 1305.12 815.384 1310.3 814.85 1312.5C814.315 1314.7 813.649 1317.85 813.37 1319.5C813.092 1321.15 812.475 1323.4 812 1324.5C811.525 1325.6 810.937 1327.85 810.693 1329.5C810.225 1332.67 804.528 1354.76 803.083 1359C802.615 1360.38 801.652 1363.53 800.942 1366C800.233 1368.47 799.28 1370.93 798.826 1371.45C798.372 1371.97 798 1373.01 798 1373.76C798 1375.69 792.134 1387.66 788.566 1393C783.837 1400.08 776.953 1406.22 769.478 1410.01C760.3 1414.66 752.445 1414.82 743.5 1410.53C736.188 1407.02 722.654 1393.78 715.86 1383.5C709.228 1373.46 700.686 1356.56 695.446 1343.12C692.956 1336.73 690.328 1330.15 689.606 1328.5C688.057 1324.96 682.303 1307.64 680.304 1300.5C679.535 1297.75 678.211 1293.03 677.364 1290C670.181 1264.36 662.084 1221.24 660.479 1200.1C660.162 1195.92 659.493 1189.8 658.993 1186.5C658.492 1183.2 657.814 1171.5 657.486 1160.5C656.489 1127.15 654.873 1106.9 653.014 1104.5C652.588 1103.95 651.973 1101.25 651.647 1098.5C651.322 1095.75 650.58 1091.47 650 1089C648.443 1082.36 637.033 1047.14 634.935 1042.5C625.84 1022.37 611.44 979.458 606.047 956.41C604.901 951.509 603.737 946.6 603.461 945.5C600.59 934.045 598 911.021 598 896.949C598 886.078 600.99 863.558 603.569 855C612.688 824.745 621.658 809.314 641.974 788.935C652.409 778.468 656.336 775.285 665.5 769.868C683.361 759.31 698.721 753.289 715 750.464C725.884 748.576 752.76 749.352 765.5 751.922ZM937 906.533C944.975 906.8 957.8 907.451 965.5 907.979C979.224 908.922 986.917 909.379 1008 910.504C1044.93 912.475 1041.6 911.662 1052.46 921.363C1065.8 933.274 1088.72 953.971 1101.95 966.044C1108.3 971.843 1117.1 979.705 1121.5 983.516C1125.9 987.327 1129.5 991.132 1129.5 991.972C1129.5 993.64 1125.07 994.218 1088.5 997.325C1078.05 998.213 1060.88 999.691 1050.34 1000.61C1039.8 1001.53 1030.57 1002.05 1029.84 1001.77C1029.1 1001.49 1025.8 1001.65 1022.5 1002.12C1019.2 1002.59 1011.32 1003.21 1005 1003.48L993.5 1003.99L989.644 999.245C987.524 996.635 983.447 992.025 980.584 989C977.722 985.975 968.657 975.959 960.44 966.741C927.422 929.703 921.533 923.194 914.415 915.865C910.337 911.665 907 907.445 907 906.486C907 904.921 907.796 904.809 914.75 905.395C919.013 905.754 929.025 906.266 937 906.533ZM1165.11 991.625C1231.04 1024.09 1248.8 1032.5 1255.5 1034.42C1258.8 1035.37 1263.08 1036.74 1265 1037.47C1266.92 1038.2 1271.42 1039.58 1275 1040.54C1288.77 1044.25 1296.62 1047.46 1302.07 1051.61C1314.15 1060.79 1339.81 1088.47 1345.08 1098C1346.15 1099.92 1347.46 1102.18 1348.01 1103C1348.55 1103.82 1355.58 1115.52 1363.63 1129C1371.68 1142.48 1381.92 1159.49 1386.38 1166.82C1401.36 1191.38 1406.07 1199.45 1410.05 1207.4C1416.27 1219.84 1416.08 1221.83 1403.49 1277.94C1400.97 1289.18 1398.64 1300.32 1398.32 1302.69C1397.99 1305.06 1397.3 1307 1396.78 1307C1396.25 1307 1389.9 1305.6 1382.66 1303.89C1375.42 1302.18 1366.8 1300.16 1363.5 1299.4C1360.2 1298.64 1353.68 1297.1 1349 1295.98C1344.32 1294.87 1336.9 1293.1 1332.5 1292.05C1328.1 1291.01 1321.8 1289.46 1318.5 1288.62C1299.7 1283.82 1260.14 1274.36 1246.5 1271.4C1239.03 1269.77 1234.89 1268.79 1228.5 1267.12C1226.3 1266.54 1218.43 1264.64 1211 1262.89C1203.57 1261.14 1196.6 1259.38 1195.5 1258.97C1194.4 1258.57 1191.03 1257.71 1188 1257.05C1184.97 1256.39 1181.38 1255.49 1180 1255.04C1178.62 1254.6 1172.78 1253.2 1167 1251.94C1161.22 1250.68 1156.05 1249.26 1155.5 1248.78C1154.45 1247.85 1153.37 1156.29 1153.15 1048.58C1153.04 993.791 1153.29 987 1155.48 987C1155.61 987 1159.94 989.081 1165.11 991.625ZM1560.88 1164.25L1594.19 1197.5L1596.19 1207C1599.23 1221.46 1601.15 1235.64 1601.07 1243C1601 1249.07 1599.87 1260.36 1598.97 1264C1595.75 1276.99 1595.66 1277.18 1593.01 1276.71C1591.63 1276.47 1583.97 1274.87 1576 1273.15C1562.31 1270.21 1556.97 1269.11 1539 1265.51C1520.11 1261.73 1511.47 1260.2 1511.11 1260.56C1510.89 1260.78 1511.57 1261.26 1512.61 1261.62C1513.65 1261.99 1515.85 1263.26 1517.5 1264.44C1521.78 1267.5 1534.48 1275 1535.38 1275C1535.79 1275 1537.61 1276.12 1539.41 1277.5C1541.21 1278.88 1542.98 1280 1543.33 1280C1544.35 1280 1554.47 1286.34 1554.83 1287.21C1555.02 1287.64 1555.77 1288 1556.51 1288C1557.25 1288 1558.45 1288.56 1559.18 1289.25C1559.9 1289.94 1562.41 1291.8 1564.75 1293.39C1567.09 1294.97 1569 1296.64 1569 1297.08C1569 1297.91 1543.79 1316.12 1535.24 1321.46C1532.63 1323.09 1527.35 1326.73 1523.5 1329.55C1519.65 1332.37 1514.04 1336.39 1511.03 1338.5L1505.56 1342.32L1495.03 1338.59C1480.87 1333.56 1459.03 1325.82 1445 1320.85C1438.68 1318.61 1432.38 1316.54 1431 1316.25C1429.62 1315.97 1428.05 1315.4 1427.5 1315C1426.95 1314.6 1425.26 1313.98 1423.75 1313.62C1420.68 1312.89 1420.28 1310.89 1422.04 1304.99C1422.61 1303.07 1423.47 1299.7 1423.94 1297.5C1425.01 1292.53 1430.24 1268.56 1432.88 1256.5C1433.97 1251.55 1435.36 1245.47 1435.97 1243C1436.58 1240.53 1437.34 1236.03 1437.66 1233.01C1437.97 1229.99 1439.05 1226.48 1440.06 1225.2C1442.27 1222.39 1453.21 1210.39 1478.94 1182.54C1489.63 1170.97 1500.62 1159.03 1503.35 1156C1507.6 1151.29 1527.17 1131 1527.46 1131C1527.52 1131 1542.56 1145.96 1560.88 1164.25ZM1150.68 1161.19C1150.36 1161.98 1150.13 1161.75 1150.08 1160.58C1150.04 1159.53 1150.27 1158.94 1150.6 1159.27C1150.94 1159.6 1150.97 1160.47 1150.68 1161.19ZM1193.73 1261.6C1193.4 1261.94 1192.53 1261.97 1191.81 1261.68C1191.01 1261.36 1191.25 1261.13 1192.42 1261.08C1193.47 1261.04 1194.06 1261.27 1193.73 1261.6ZM1156 1270.97C1157.92 1271.47 1161.3 1272.4 1163.5 1273.02C1167.93 1274.28 1184.2 1278.34 1193.5 1280.51C1196.8 1281.28 1202.88 1282.8 1207 1283.9C1214.69 1285.95 1236.98 1291.8 1256.5 1296.9C1270.63 1300.58 1273.32 1301.66 1272.39 1303.25C1271.98 1303.94 1269.93 1307.12 1267.83 1310.32C1265.72 1313.52 1264 1316.29 1264 1316.47C1264 1316.65 1262.2 1319.76 1260 1323.38C1257.8 1327 1256 1330.23 1256 1330.55C1256 1330.88 1254.65 1333.1 1253 1335.5C1251.35 1337.9 1250 1340.07 1250 1340.33C1250 1340.59 1248.23 1343.66 1246.06 1347.15C1240.9 1355.45 1220.09 1390.08 1216.41 1396.5C1214.82 1399.25 1211.7 1403.34 1209.45 1405.59L1205.38 1409.68L1150.94 1410.41C1058.05 1411.65 1050.07 1411.78 1029.37 1412.49C1017.84 1412.89 1009 1412.8 1008.68 1412.29C1008.38 1411.8 1008.5 1410.8 1008.96 1410.07C1009.96 1408.44 1130.34 1287.81 1141.33 1277.41C1149.44 1269.74 1150.15 1269.43 1156 1270.97ZM1272.73 1280.6C1272.4 1280.94 1271.53 1280.97 1270.81 1280.68C1270.01 1280.36 1270.25 1280.13 1271.42 1280.08C1272.47 1280.04 1273.06 1280.27 1272.73 1280.6Z" fill="white"></path>
</g>
<defs>
<clipPath id="clip0_3316_18">
<rect width="2100" height="2100" fill="white"></rect>
</clipPath>
</defs>
</svg>